<svg xmlns="http://www.w3.org/2000/svg" width="277.65" height="59.553" viewBox="0 0 277.65 59.553">
  <g id="Grupo_5" data-name="Grupo 5" transform="translate(-5 -3)">
    <text id="Paviluma" transform="translate(71.65 46)" fill="#1a1818" font-size="49" font-family="ChangaOne, Changa One"><tspan x="0" y="0">Paviluma</tspan></text>
    <g id="Grupo_4" data-name="Grupo 4" transform="translate(5 11.549)">
      <path id="Caminho_7" data-name="Caminho 7" d="M261.493,247.075l-.015-.009-8.038,5.648c-.663.466-1.471,1.067-2.163.58l-6.057-4.255V216.809l8.953-5.483-1.306,31.285c4.842-3.4,6.858-5.12,8.626-5.342,1.768.222,3.783,1.941,8.625,5.342l.182-31.285,7.465,5.483V249.04l-6.725,4.724-9.533-6.7Z" transform="translate(-212.674 -211.326)" fill="#fe7d0a" fill-rule="evenodd"/>
      <path id="Caminho_8" data-name="Caminho 8" d="M211.645,235.77l.165-24.444,8.848,5.418-.22,32.3-7.773,4.724-.09-.055-.087-.053-3.322-6.4L197.424,230.18l-.159,23.583-8.628-5.483-.128-31.472,7.406-5.439Z" transform="translate(-188.508 -211.326)" fill="#fe7d0a" fill-rule="evenodd"/>
    </g>
    <text id="pavimentação_e_asfalto" data-name="pavimentação e asfalto" transform="translate(155.123 59.553)" fill="#fe7d0a" font-size="11" font-family="NovaSquare, Nova Square"><tspan x="0" y="0">pavimentação e asfalto</tspan></text>
  </g>
</svg>
